<svg xmlns="http://www.w3.org/2000/svg" width="64" height="64" enable-background="new 0 0 64 64" viewBox="0 0 64 64"><path d="M43.803,19.098l3.029-4.544c0.265-0.396,0.212-0.925-0.125-1.262l-2-2C44.52,11.105,44.265,11,44,11h-4
			c-0.265,0-0.52,0.105-0.707,0.293l-2,2c-0.337,0.337-0.39,0.865-0.125,1.262l3.029,4.544c-3.043,0.322-5.838,1.462-8.189,3.178
			C29.118,20.167,25.599,19,22,19c-9.374,0-17,7.626-17,17s7.626,17,17,17c3.599,0,7.118-1.167,10.008-3.276
			C34.817,51.774,38.264,53,42,53c9.374,0,17-7.626,17-17C59,27.235,52.332,20.002,43.803,19.098z M42,18.197L40.535,16h2.93
			L42,18.197z M40.414,13h3.172l1,1h-5.172L40.414,13z M22,51c-8.271,0-15-6.729-15-15s6.729-15,15-15
			c3.005,0,5.952,0.915,8.42,2.589c-0.251,0.234-0.496,0.473-0.732,0.722C27.406,22.801,24.769,22,22,22c-7.72,0-14,6.28-14,14
			s6.28,14,14,14c2.769,0,5.406-0.801,7.688-2.311c0.236,0.249,0.481,0.488,0.732,0.722C27.952,50.085,25.005,51,22,51z
			 M28.396,25.849C26.273,28.686,25,32.193,25,36s1.273,7.314,3.396,10.151C26.486,47.363,24.295,48,22,48c-6.617,0-12-5.383-12-12
			s5.383-12,12-12C24.295,24,26.486,24.637,28.396,25.849z M42,51c-8.271,0-15-6.729-15-15s6.729-15,15-15s15,6.729,15,15
			S50.271,51,42,51z"/><path d="M42,22c-3.141,0-6.033,1.052-8.371,2.805c-0.031,0.021-0.068,0.029-0.097,0.054c-0.015,0.013-0.021,0.032-0.036,0.045
			c-0.778,0.597-1.493,1.269-2.13,2.014c-0.002,0.001-0.004,0.002-0.005,0.003c-0.009,0.007-0.012,0.018-0.021,0.026
			C29.261,29.391,28,32.549,28,36s1.261,6.609,3.34,9.053c0.009,0.008,0.012,0.018,0.021,0.026c0.002,0.001,0.004,0.002,0.006,0.003
			c0.637,0.744,1.352,1.416,2.13,2.014c0.014,0.014,0.02,0.032,0.036,0.045c0.034,0.029,0.076,0.042,0.113,0.066
			C35.979,48.952,38.866,50,42,50c7.72,0,14-6.28,14-14S49.72,22,42,22z M33.304,44.245C35.043,41.863,36,38.972,36,36
			s-0.957-5.863-2.696-8.245c0.232-0.244,0.475-0.477,0.726-0.701C35.946,29.629,37,32.765,37,36s-1.054,6.371-2.97,8.946
			C33.779,44.722,33.536,44.49,33.304,44.245z M32.001,29.379C33.292,31.331,34,33.636,34,36s-0.708,4.669-1.999,6.621
			C30.739,40.721,30,38.446,30,36S30.739,31.279,32.001,29.379z M42,48c-2.343,0-4.524-0.685-6.374-1.851
			C37.802,43.228,39,39.669,39,36s-1.198-7.228-3.374-10.149C37.476,24.685,39.657,24,42,24c6.617,0,12,5.383,12,12S48.617,48,42,48
			z"/></svg>